<?xml version="1.0" standalone="no"?>
<!DOCTYPE svg PUBLIC "-//W3C//DTD SVG 20010904//EN"
 "http://www.w3.org/TR/2001/REC-SVG-20010904/DTD/svg10.dtd">
<svg version="1.0" xmlns="http://www.w3.org/2000/svg"
 width="3128.000000pt" height="3128.000000pt" viewBox="0 0 3128.000000 3128.000000"
 preserveAspectRatio="xMidYMid meet">
<metadata>
Created by potrace 1.11, written by Peter Selinger 2001-2013
</metadata>
<g transform="translate(0.000000,3128.000000) scale(0.100000,-0.100000)"
fill="#000000" stroke="none">
<path d="M16100 31133 c-47 -71 -89 -132 -93 -138 -27 -34 -227 -346 -227
-355 0 -5 -4 -10 -10 -10 -5 0 -10 -5 -10 -11 0 -6 -7 -17 -15 -26 -8 -8 -13
-19 -10 -24 4 -5 2 -9 -3 -9 -9 0 -72 -95 -72 -109 0 -5 -7 -14 -15 -21 -8 -7
-21 -24 -28 -39 -8 -14 -51 -86 -95 -159 -45 -74 -82 -138 -82 -143 0 -5 -4
-9 -9 -9 -5 0 -11 -8 -15 -17 -3 -10 -17 -36 -31 -58 -14 -22 -28 -47 -32 -55
-4 -8 -24 -43 -45 -78 -21 -34 -38 -65 -38 -69 0 -3 -6 -14 -14 -22 -7 -9 -26
-41 -42 -71 -15 -30 -37 -67 -47 -82 -10 -16 -15 -33 -11 -39 4 -7 3 -9 -3 -6
-13 8 -36 -41 -27 -55 4 -6 3 -8 -3 -5 -5 4 -16 -6 -24 -21 -8 -15 -28 -52
-45 -82 -29 -51 -86 -158 -174 -327 -21 -40 -35 -74 -32 -78 3 -3 1 -5 -5 -5
-9 0 -21 -27 -21 -47 0 -3 -4 -9 -9 -12 -6 -3 -23 -33 -40 -66 -98 -192 -123
-247 -117 -257 4 -6 3 -8 -3 -5 -10 6 -45 -58 -43 -77 1 -5 -2 -12 -7 -15 -9
-5 -133 -256 -133 -267 0 -5 -15 -37 -107 -233 -29 -62 -53 -117 -53 -122 0
-4 -11 -29 -25 -55 -14 -25 -22 -50 -19 -55 3 -5 0 -9 -5 -9 -6 0 -11 -4 -11
-10 0 -5 -16 -44 -35 -86 -19 -41 -35 -78 -35 -81 0 -2 -14 -34 -30 -71 -17
-36 -28 -72 -26 -79 3 -8 2 -12 -3 -9 -12 8 -44 -81 -35 -95 4 -7 3 -9 -3 -6
-13 8 -155 -346 -323 -803 -92 -249 -111 -310 -103 -323 3 -5 2 -7 -4 -4 -12
7 -75 -181 -66 -196 3 -6 2 -7 -3 -4 -6 3 -29 -56 -52 -131 -24 -75 -49 -151
-57 -168 -10 -24 -11 -34 -2 -44 9 -10 9 -11 0 -6 -8 4 -20 -22 -38 -81 -15
-49 -34 -110 -43 -138 -9 -27 -17 -52 -17 -55 0 -3 -11 -39 -24 -80 -13 -41
-24 -79 -25 -85 -1 -5 -14 -49 -29 -96 -15 -47 -28 -94 -30 -105 -2 -10 -7
-27 -11 -36 -4 -9 -5 -22 -1 -28 3 -5 2 -10 -3 -10 -5 0 -13 -19 -19 -42 -6
-24 -20 -77 -31 -118 -47 -169 -55 -202 -98 -370 -25 -96 -47 -182 -49 -190
-10 -36 -76 -317 -80 -337 -2 -13 -6 -26 -8 -30 -3 -5 -8 -24 -11 -43 -3 -19
-17 -84 -31 -144 -13 -60 -22 -113 -19 -117 3 -5 1 -9 -3 -9 -9 0 -14 -24 -17
-72 0 -16 -4 -28 -7 -28 -3 0 -6 -6 -6 -12 0 -7 -3 -24 -7 -38 -8 -35 -26
-120 -32 -150 -2 -14 -9 -47 -14 -75 -6 -27 -12 -60 -15 -73 -2 -13 -6 -31 -9
-40 -3 -9 -7 -35 -10 -57 -4 -22 -8 -51 -11 -65 -12 -59 -63 -335 -69 -380 -8
-52 -15 -92 -22 -120 -3 -13 -7 -40 -10 -59 -2 -19 -6 -46 -9 -60 -15 -87 -37
-231 -39 -261 -2 -19 -7 -43 -11 -53 -4 -9 -5 -30 -3 -47 2 -16 1 -27 -4 -24
-5 3 -7 -6 -4 -20 3 -14 1 -28 -3 -30 -8 -5 -14 -57 -15 -133 -1 -22 -4 -39
-8 -36 -7 4 -13 -38 -9 -60 1 -5 -3 -34 -8 -65 -18 -108 -35 -249 -36 -304 0
-21 -3 -38 -6 -38 -3 0 -6 -6 -6 -12 0 -7 -4 -47 -8 -88 -4 -41 -9 -97 -10
-125 -2 -27 -4 -50 -5 -50 -5 0 -11 -61 -26 -240 -3 -38 -8 -73 -10 -77 -3 -5
1 -8 8 -8 11 0 11 -2 0 -9 -7 -4 -12 -23 -12 -42 1 -19 -1 -54 -3 -79 -3 -25
-8 -81 -11 -125 -4 -44 -9 -98 -11 -120 -2 -22 -6 -92 -10 -155 -3 -63 -8
-144 -11 -180 -2 -36 -7 -116 -9 -179 -3 -62 -7 -117 -10 -121 -2 -3 2 -19 10
-34 8 -14 10 -24 5 -21 -6 4 -11 3 -11 -2 -13 -89 -20 -1143 -7 -1143 7 0 7
-5 1 -12 -5 -7 -8 -31 -7 -53 1 -22 5 -114 9 -205 7 -179 13 -274 19 -305 3
-11 5 -33 5 -48 1 -20 5 -26 14 -21 9 6 9 5 0 -7 -8 -11 -8 -33 3 -94 8 -44
16 -93 19 -110 2 -16 7 -43 10 -60 3 -16 10 -55 16 -85 18 -97 20 -105 25
-122 3 -10 7 -30 10 -45 3 -15 8 -31 11 -37 4 -5 7 -21 8 -35 3 -32 10 -63 36
-161 11 -41 22 -88 25 -105 3 -16 9 -37 14 -45 4 -8 13 -40 21 -70 7 -30 14
-57 14 -60 1 -3 4 -12 8 -20 5 -12 22 -72 32 -110 7 -28 79 -247 83 -255 4 -5
7 -16 8 -23 3 -16 112 -327 129 -367 16 -38 90 -228 91 -235 0 -3 8 -22 17
-44 9 -21 17 -40 17 -43 0 -2 9 -25 21 -51 25 -57 39 -90 69 -162 12 -30 35
-82 49 -115 15 -33 49 -110 76 -172 27 -61 53 -109 59 -106 5 3 6 1 2 -5 -3
-6 19 -64 50 -129 32 -65 58 -120 58 -123 4 -18 71 -146 80 -152 6 -4 8 -8 4
-8 -6 0 43 -108 81 -180 5 -9 30 -58 57 -110 26 -52 53 -98 59 -102 5 -4 7 -8
3 -8 -12 0 33 -80 45 -80 6 0 7 -3 4 -7 -8 -8 79 -174 260 -498 49 -88 102
-182 117 -210 15 -27 34 -55 42 -61 7 -6 12 -13 9 -15 -8 -8 91 -169 100 -162
4 5 5 3 2 -4 -7 -11 49 -114 66 -121 4 -2 7 -9 7 -16 0 -6 16 -35 35 -65 19
-29 35 -54 35 -56 0 -5 94 -160 111 -182 9 -12 20 -19 24 -15 5 4 5 1 1 -6 -7
-11 79 -163 96 -170 5 -2 8 -8 8 -13 0 -5 16 -35 37 -66 61 -98 107 -168 113
-173 3 -3 12 -18 21 -35 9 -16 21 -29 28 -27 7 1 9 -2 6 -8 -4 -6 4 -28 18
-48 13 -20 48 -74 78 -119 29 -46 57 -83 62 -83 4 0 6 -4 3 -8 -3 -5 8 -24 24
-43 16 -19 29 -38 30 -43 0 -11 91 -140 102 -144 4 -2 6 -8 3 -12 -3 -5 3 -15
13 -22 11 -7 19 -15 18 -18 0 -3 14 -26 32 -52 18 -26 32 -51 32 -56 0 -6 4
-12 8 -14 4 -1 23 -25 42 -53 19 -27 37 -52 40 -55 3 -3 32 -44 65 -93 32 -48
62 -87 67 -87 4 0 8 -4 8 -10 0 -8 82 -122 100 -140 3 -3 36 -47 74 -97 37
-51 72 -93 77 -93 5 0 8 -4 6 -9 -2 -7 62 -101 83 -121 3 -3 11 -14 18 -25 7
-11 22 -35 33 -52 12 -18 25 -33 30 -33 5 0 9 -5 9 -11 0 -20 41 -69 52 -63 7
4 8 2 4 -5 -4 -6 5 -28 22 -49 16 -20 37 -52 48 -69 10 -18 22 -33 26 -33 4 0
8 -5 8 -11 0 -7 9 -20 21 -30 11 -9 19 -19 17 -22 -3 -4 82 -131 107 -160 6
-7 44 -63 84 -124 41 -62 79 -113 83 -113 4 0 7 -3 6 -7 -5 -14 399 -613 407
-605 5 4 5 2 2 -4 -4 -7 2 -23 13 -37 11 -14 20 -29 20 -34 0 -5 8 -18 18 -29
9 -10 23 -31 31 -46 8 -15 19 -24 25 -21 6 3 8 3 4 -2 -7 -7 24 -69 41 -85 4
-3 11 -14 18 -25 58 -97 96 -155 102 -155 4 0 8 -6 8 -13 0 -7 15 -35 34 -62
19 -28 70 -106 113 -175 44 -69 104 -164 135 -213 31 -48 61 -95 66 -104 6
-10 19 -31 30 -48 11 -16 25 -37 30 -47 66 -113 141 -225 149 -221 5 3 6 2 3
-4 -3 -5 9 -34 28 -64 18 -30 61 -99 95 -154 33 -55 66 -109 73 -119 7 -11 24
-39 38 -63 14 -23 28 -41 30 -40 2 1 3 0 2 -2 -3 -4 29 -63 38 -71 3 -3 27
-41 53 -85 26 -44 87 -145 136 -225 50 -80 93 -152 97 -160 3 -8 25 -46 48
-85 22 -38 47 -82 55 -97 7 -16 17 -28 22 -28 4 0 8 -6 8 -14 0 -23 46 -97 55
-89 4 5 5 3 2 -3 -6 -11 48 -123 66 -135 5 -3 8 -10 8 -15 -2 -21 11 -44 21
-38 6 4 8 2 5 -3 -4 -6 12 -48 34 -94 69 -140 117 -244 117 -252 1 -4 10 -24
21 -45 11 -20 34 -71 51 -112 17 -41 37 -88 45 -105 23 -53 67 -166 125 -322
31 -84 60 -150 65 -145 4 4 5 1 1 -6 -4 -6 6 -49 22 -95 27 -75 104 -312 108
-329 1 -5 3 -10 4 -13 1 -3 4 -9 5 -15 1 -5 4 -13 5 -17 1 -5 3 -12 4 -18 1
-5 12 -44 24 -85 12 -41 27 -93 33 -115 6 -22 15 -50 20 -63 5 -13 9 -32 9
-43 0 -10 4 -27 9 -37 8 -14 42 -148 56 -222 2 -12 7 -30 10 -40 3 -10 8 -29
10 -42 7 -38 37 -172 42 -188 5 -19 5 -17 15 -65 4 -22 11 -58 14 -80 3 -22
10 -45 15 -51 5 -6 7 -13 4 -16 -2 -2 4 -51 16 -109 11 -57 22 -120 25 -139 3
-19 10 -62 16 -95 5 -33 12 -71 14 -85 2 -14 6 -41 9 -60 4 -19 8 -48 10 -65
6 -52 16 -129 21 -165 8 -46 10 -66 18 -125 13 -99 16 -131 21 -180 3 -27 7
-68 9 -90 2 -22 7 -77 11 -123 4 -46 8 -91 10 -100 2 -9 4 -43 4 -75 1 -40 5
-56 12 -51 8 5 8 1 0 -13 -6 -11 -8 -23 -5 -26 4 -3 8 -50 10 -104 4 -103 13
-268 14 -268 7 0 12 -895 6 -1040 -10 -212 -19 -393 -21 -425 -2 -19 -6 -77
-10 -129 -3 -52 -8 -98 -11 -103 -3 -4 1 -8 8 -8 9 0 9 -3 2 -8 -6 -4 -11 -14
-11 -22 0 -16 -13 -150 -18 -190 -2 -14 -6 -47 -9 -75 -3 -27 -9 -63 -11 -80
-4 -21 -3 -26 4 -15 10 17 128 341 161 445 12 39 25 77 28 85 6 18 5 13 22 70
7 25 14 50 16 55 1 6 9 29 18 53 8 23 13 42 9 42 -3 0 0 6 6 14 6 8 11 18 10
22 -1 5 0 16 3 24 13 39 66 224 73 255 1 6 7 29 14 53 6 23 9 46 6 51 -3 5 -1
11 3 13 8 3 66 229 77 295 2 15 11 60 20 98 9 39 19 81 21 95 3 14 13 72 24
129 11 57 17 108 14 112 -3 5 -1 9 5 9 5 0 9 8 9 18 0 9 2 31 6 47 3 17 8 50
12 75 3 25 8 53 10 63 3 10 7 32 9 50 7 57 17 132 20 148 2 9 6 40 10 70 3 30
8 61 10 69 2 8 7 47 10 85 4 39 9 81 10 95 2 14 6 52 9 85 3 33 9 78 11 100 3
22 7 83 10 135 2 52 5 95 6 95 5 0 18 218 25 410 10 292 4 914 -11 1120 -2 28
-4 78 -4 113 -1 43 -4 61 -12 56 -8 -5 -8 -1 0 13 6 11 9 22 6 24 -3 3 -17
184 -18 237 0 6 -3 12 -6 12 -3 0 -6 21 -7 47 -2 137 -4 154 -16 147 -10 -6
-10 -5 -1 8 7 8 11 17 9 19 -3 2 -8 38 -12 79 -3 41 -9 79 -11 83 -3 4 -6 31
-8 60 -2 29 -6 70 -9 92 -3 22 -10 78 -16 125 -6 47 -13 96 -16 110 -2 14 -6
39 -8 55 -2 17 -7 53 -12 80 -4 28 -7 56 -5 64 1 7 -1 11 -6 8 -4 -3 -8 9 -9
26 0 28 -7 80 -19 152 -2 11 -4 28 -4 38 -1 10 -5 15 -11 12 -5 -3 -7 0 -4 8
5 13 0 44 -22 164 -3 16 -6 36 -7 46 -1 9 -4 17 -7 17 -3 0 -6 12 -6 28 -1 15
-4 38 -7 52 -3 14 -8 43 -12 65 -3 22 -9 47 -12 55 -3 8 -7 29 -9 45 -2 17 -7
41 -10 55 -9 33 -11 41 -18 70 -5 24 -8 40 -21 100 -12 55 -15 69 -38 168 -13
56 -26 99 -31 95 -4 -4 -5 -1 -1 7 4 12 -30 168 -49 225 -2 6 -7 29 -11 53 -4
23 -12 45 -16 48 -5 3 -7 9 -4 14 3 5 0 21 -6 37 -7 15 -13 41 -15 57 -3 17
-8 32 -12 35 -4 4 -9 17 -10 31 -4 26 -17 76 -50 190 -11 36 -31 108 -46 160
-15 52 -30 102 -33 110 -3 8 -7 20 -8 26 -5 22 -76 248 -114 361 -21 62 -41
110 -46 105 -5 -4 -5 -1 -1 5 8 15 -84 289 -229 678 -13 33 -31 83 -41 110
-11 28 -23 53 -27 56 -5 3 -8 9 -8 13 4 25 0 36 -11 30 -7 -4 -8 -3 -4 4 5 9
-111 316 -173 457 -5 11 -18 41 -30 67 -12 26 -21 50 -21 53 0 2 -12 30 -26
62 -42 96 -84 191 -113 256 -63 146 -85 192 -93 195 -4 2 -8 10 -8 18 0 9 -13
43 -29 77 -15 34 -39 86 -52 114 -13 29 -26 53 -30 53 -3 0 -6 6 -6 13 0 9
-158 346 -192 407 -4 8 -59 115 -121 237 -64 126 -117 220 -123 216 -6 -3 -7
-1 -3 5 7 12 -20 72 -38 84 -6 4 -8 8 -4 8 4 0 -1 15 -11 33 -11 17 -36 64
-57 104 -20 40 -42 69 -47 66 -6 -3 -7 -1 -3 5 6 10 -24 67 -169 327 -15 28
-31 52 -34 55 -3 3 -22 35 -41 72 -19 38 -37 68 -40 68 -3 0 -14 20 -25 45
-11 25 -23 45 -27 45 -5 0 -8 7 -8 15 0 8 -4 15 -8 15 -4 0 -13 12 -20 28 -6
15 -23 45 -37 67 -13 22 -32 55 -41 73 -9 17 -20 32 -25 32 -5 0 -9 5 -9 10 0
14 -91 164 -102 168 -4 2 -8 8 -8 13 0 12 -112 193 -122 197 -5 2 -8 8 -8 14
0 12 -61 102 -72 106 -4 2 -8 8 -8 13 0 17 -73 119 -81 113 -5 -3 -7 1 -4 8 6
16 -139 230 -149 220 -4 -4 -6 -2 -5 3 3 11 -17 51 -35 72 -29 32 -186 271
-186 283 0 4 -6 13 -14 19 -8 7 -24 31 -36 54 -12 23 -27 47 -33 52 -7 6 -13
16 -14 22 -3 12 -62 114 -72 123 -7 6 -30 47 -61 105 -11 22 -30 54 -40 70
-11 17 -26 41 -33 55 -6 14 -29 54 -49 90 -20 36 -52 94 -72 130 -20 36 -40
64 -45 63 -6 -2 -8 4 -5 12 4 9 2 21 -4 28 -6 6 -29 48 -53 92 -23 44 -57 109
-76 145 -19 36 -40 68 -46 72 -7 4 -9 8 -4 8 4 0 1 10 -7 23 -8 12 -16 27 -18
32 -2 6 -7 9 -11 7 -5 -1 -6 2 -3 7 8 13 -4 42 -15 35 -5 -3 -6 1 -3 9 3 8 -2
22 -11 30 -9 9 -15 19 -15 22 1 10 -123 255 -130 255 -4 0 -7 6 -7 13 0 24
-130 277 -138 269 -4 -4 -5 -2 -2 4 3 6 0 21 -7 35 -7 13 -13 27 -14 31 -5 15
-126 263 -132 268 -3 3 -6 10 -7 17 -2 7 -22 54 -47 105 -24 51 -50 108 -57
125 -8 18 -17 33 -21 33 -5 0 -7 3 -6 8 4 16 -14 52 -24 46 -7 -4 -8 -2 -4 4
6 10 -12 54 -90 220 -19 39 -34 77 -34 83 0 5 -5 7 -12 3 -7 -4 -8 -3 -4 4 4
6 -1 26 -11 44 -9 18 -18 38 -19 43 -1 6 -17 42 -34 80 -107 233 -130 294
-175 450 -38 135 -53 190 -61 220 -1 6 -21 82 -44 170 -48 186 -49 192 -56
224 -3 13 -21 92 -40 175 -19 83 -37 169 -40 191 -3 22 -8 42 -12 45 -4 3 -8
16 -8 30 -1 22 -14 91 -29 160 -3 14 -8 40 -11 59 -3 18 -8 42 -10 52 -10 45
-12 56 -19 99 -4 25 -9 54 -11 65 -2 11 -9 49 -14 85 -6 36 -13 76 -16 90 -2
14 -7 41 -9 60 -3 19 -8 51 -11 70 -8 48 -10 62 -24 160 -7 47 -14 92 -17 100
-3 8 -6 35 -8 60 -3 40 -8 79 -20 170 -2 14 -4 40 -4 58 -1 18 -4 31 -8 29 -5
-3 -7 16 -7 41 1 26 -2 74 -7 107 -4 33 -11 86 -14 119 -4 32 -8 73 -10 90 -2
17 -7 72 -10 121 -4 50 -8 106 -11 125 -2 19 -6 76 -9 125 -4 50 -8 108 -10
130 -4 44 -18 297 -19 357 -1 21 -3 38 -6 38 -3 0 -6 57 -7 128 -3 210 -10
506 -13 517 -1 6 -1 12 0 15 7 17 3 410 -4 410 -5 0 -3 7 4 15 9 11 10 18 1
28 -6 8 -8 17 -4 20 11 12 10 61 -1 76 -8 11 -8 13 1 8 8 -5 12 26 12 115 2
143 8 321 16 481 3 61 8 153 10 202 3 50 7 122 10 160 3 39 8 108 11 155 3 47
7 105 9 130 8 104 15 198 19 245 3 28 8 84 11 125 3 41 8 86 10 100 2 14 7 54
10 90 3 36 7 81 10 100 2 19 7 60 10 90 4 30 8 71 11 90 2 19 6 60 10 90 3 30
7 66 9 80 2 14 6 50 10 80 3 30 8 66 10 80 2 14 7 50 11 80 3 30 8 58 11 63 2
4 -2 7 -9 7 -9 0 -10 3 -2 8 6 4 14 31 18 60 3 28 8 67 11 85 3 17 7 50 11 72
3 22 7 49 9 60 1 11 6 40 9 65 4 25 9 56 12 70 7 36 15 100 19 140 2 19 4 35
5 35 2 0 9 36 15 80 3 22 7 47 10 55 2 8 7 35 10 60 4 25 11 68 16 95 6 28 12
66 15 85 2 19 13 82 24 140 11 58 22 121 25 140 3 19 10 53 15 75 14 67 24
128 24 162 1 17 5 29 10 26 5 -3 7 6 4 20 -3 15 -1 24 3 21 5 -3 9 4 9 16 0
12 21 117 46 233 25 117 47 223 49 237 2 14 13 63 25 109 11 47 19 90 16 97
-2 6 0 16 6 22 5 5 11 20 13 33 4 28 9 48 25 108 6 24 9 50 6 58 -3 8 -1 11 4
8 6 -3 10 1 10 10 0 9 18 89 40 178 22 89 42 172 45 185 2 13 7 32 10 42 3 10
8 27 10 37 2 10 9 36 15 58 6 22 13 53 15 68 3 15 9 35 14 45 5 9 12 31 15 47
9 52 24 106 30 112 3 4 0 13 -7 21 -9 12 -9 14 0 9 8 -5 14 2 19 20 3 15 8 35
11 43 3 8 8 24 10 35 2 11 17 67 33 125 17 58 39 139 51 180 11 41 24 86 29
100 5 14 34 113 65 220 31 107 60 204 65 215 5 11 14 40 20 64 6 24 31 105 56
179 24 75 42 142 39 150 -2 7 -1 11 3 8 7 -4 46 103 58 154 0 3 3 12 7 20 27
68 76 224 71 231 -3 5 -1 9 4 9 12 0 34 59 27 70 -3 5 -2 10 2 12 7 3 50 114
58 148 8 39 10 45 16 50 3 3 24 57 47 120 41 116 154 418 171 455 11 27 23 56
56 140 16 39 36 88 45 110 21 49 30 75 27 75 -1 0 -41 -57 -87 -127z m-810
-1527 c0 -3 -4 -8 -10 -11 -5 -3 -10 -1 -10 4 0 6 5 11 10 11 6 0 10 -2 10 -4z
m-160 -320 c0 -3 -4 -8 -10 -11 -5 -3 -10 -1 -10 4 0 6 5 11 10 11 6 0 10 -2
10 -4z m0 -166 c0 -5 -2 -10 -4 -10 -3 0 -8 5 -11 10 -3 6 -1 10 4 10 6 0 11
-4 11 -10z m77 -565 c0 -8 -4 -12 -9 -9 -5 3 -6 10 -3 15 9 13 12 11 12 -6z
m-1197 -1675 c0 -5 -2 -10 -4 -10 -3 0 -8 5 -11 10 -3 6 -1 10 4 10 6 0 11 -4
11 -10z m0 -154 c0 -3 -4 -8 -10 -11 -5 -3 -10 -1 -10 4 0 6 5 11 10 11 6 0
10 -2 10 -4z m235 -86 c3 -5 1 -10 -4 -10 -6 0 -11 5 -11 10 0 6 2 10 4 10 3
0 8 -4 11 -10z m-320 -1599 c3 -5 2 -12 -3 -15 -5 -3 -9 1 -9 9 0 17 3 19 12
6z m322 -6 c0 -8 -4 -12 -9 -9 -5 3 -6 10 -3 15 9 13 12 11 12 -6z m-642 -635
c3 -5 1 -10 -4 -10 -6 0 -11 5 -11 10 0 6 2 10 4 10 3 0 8 -4 11 -10z m-518
-475 c0 -8 -4 -12 -9 -9 -5 3 -6 10 -3 15 9 13 12 11 12 -6z m518 -794 c3 -5
2 -12 -3 -15 -5 -3 -9 1 -9 9 0 17 3 19 12 6z m322 -6 c0 -8 -4 -12 -9 -9 -5
3 -6 10 -3 15 9 13 12 11 12 -6z m-321 -165 c0 -12 -4 -16 -9 -11 -5 5 -6 14
-3 20 10 15 12 14 12 -9z m325 3 c13 -16 12 -17 -3 -4 -10 7 -18 15 -18 17 0
8 8 3 21 -13z m-161 -3 c0 -5 -4 -10 -10 -10 -5 0 -10 5 -10 10 0 6 5 10 10
10 6 0 10 -4 10 -10z m-165 -159 c3 -5 2 -12 -3 -15 -5 -3 -9 1 -9 9 0 17 3
19 12 6z m322 -6 c0 -8 -4 -12 -9 -9 -5 3 -6 10 -3 15 9 13 12 11 12 -6z m243
-555 c0 -5 -5 -10 -11 -10 -5 0 -7 5 -4 10 3 6 8 10 11 10 2 0 4 -4 4 -10z
m-1125 -160 c3 -5 1 -10 -4 -10 -6 0 -11 5 -11 10 0 6 2 10 4 10 3 0 8 -4 11
-10z m1120 0 c3 -5 1 -10 -4 -10 -6 0 -11 5 -11 10 0 6 2 10 4 10 3 0 8 -4 11
-10z m-1275 -160 c0 -5 -5 -10 -11 -10 -5 0 -7 5 -4 10 3 6 8 10 11 10 2 0 4
-4 4 -10z m160 0 c0 -5 -2 -10 -4 -10 -3 0 -8 5 -11 10 -3 6 -1 10 4 10 6 0
11 -4 11 -10z m1120 0 c0 -5 -2 -10 -4 -10 -3 0 -8 5 -11 10 -3 6 -1 10 4 10
6 0 11 -4 11 -10z m-1280 -160 c0 -5 -5 -10 -11 -10 -5 0 -7 5 -4 10 3 6 8 10
11 10 2 0 4 -4 4 -10z m-160 -154 c0 -3 -4 -8 -10 -11 -5 -3 -10 -1 -10 4 0 6
5 11 10 11 6 0 10 -2 10 -4z m1195 -86 c3 -5 1 -10 -4 -10 -6 0 -11 5 -11 10
0 6 2 10 4 10 3 0 8 -4 11 -10z m-1200 -80 c3 -5 1 -10 -4 -10 -6 0 -11 5 -11
10 0 6 2 10 4 10 3 0 8 -4 11 -10z m1605 -480 c0 -5 -2 -10 -4 -10 -3 0 -8 5
-11 10 -3 6 -1 10 4 10 6 0 11 -4 11 -10z m-725 -389 c3 -5 2 -12 -3 -15 -5
-3 -9 1 -9 9 0 17 3 19 12 6z m322 -6 c0 -8 -4 -12 -9 -9 -5 3 -6 10 -3 15 9
13 12 11 12 -6z m-1357 -85 c0 -5 -5 -10 -11 -10 -5 0 -7 5 -4 10 3 6 8 10 11
10 2 0 4 -4 4 -10z m160 6 c0 -3 -4 -8 -10 -11 -5 -3 -10 -1 -10 4 0 6 5 11
10 11 6 0 10 -2 10 -4z m315 -326 c3 -5 1 -10 -4 -10 -6 0 -11 5 -11 10 0 6 2
10 4 10 3 0 8 -4 11 -10z m-155 -160 c0 -5 -5 -10 -11 -10 -5 0 -7 5 -4 10 3
6 8 10 11 10 2 0 4 -4 4 -10z m160 0 c0 -5 -2 -10 -4 -10 -3 0 -8 5 -11 10 -3
6 -1 10 4 10 6 0 11 -4 11 -10z m1280 -480 c0 -5 -2 -10 -4 -10 -3 0 -8 5 -11
10 -3 6 -1 10 4 10 6 0 11 -4 11 -10z m-720 -240 c0 -5 -2 -10 -4 -10 -3 0 -8
5 -11 10 -3 6 -1 10 4 10 6 0 11 -4 11 -10z m-720 -720 c0 -5 -2 -10 -4 -10
-3 0 -8 5 -11 10 -3 6 -1 10 4 10 6 0 11 -4 11 -10z m160 0 c0 -5 -5 -10 -11
-10 -5 0 -7 5 -4 10 3 6 8 10 11 10 2 0 4 -4 4 -10z m160 6 c0 -3 -4 -8 -10
-11 -5 -3 -10 -1 -10 4 0 6 5 11 10 11 6 0 10 -2 10 -4z m-236 -404 c3 -5 -1
-9 -9 -9 -8 0 -12 4 -9 9 3 4 7 8 9 8 2 0 6 -4 9 -8z m1516 -82 c0 -5 -5 -10
-11 -10 -5 0 -7 5 -4 10 3 6 8 10 11 10 2 0 4 -4 4 -10z m160 0 c0 -5 -5 -10
-11 -10 -5 0 -7 5 -4 10 3 6 8 10 11 10 2 0 4 -4 4 -10z m-1680 -80 c0 -5 -2
-10 -4 -10 -3 0 -8 5 -11 10 -3 6 -1 10 4 10 6 0 11 -4 11 -10z m1355 -80 c3
-5 1 -10 -4 -10 -6 0 -11 5 -11 10 0 6 2 10 4 10 3 0 8 -4 11 -10z m160 0 c3
-5 1 -10 -4 -10 -6 0 -11 5 -11 10 0 6 2 10 4 10 3 0 8 -4 11 -10z m-25 -74
c0 -2 -8 -10 -17 -17 -16 -13 -17 -12 -4 4 13 16 21 21 21 13z m-450 -80 c0
-3 -4 -8 -10 -11 -5 -3 -10 -1 -10 4 0 6 5 11 10 11 6 0 10 -2 10 -4z m-165
-166 c3 -5 1 -10 -4 -10 -6 0 -11 5 -11 10 0 6 2 10 4 10 3 0 8 -4 11 -10z
m160 0 c3 -5 1 -10 -4 -10 -6 0 -11 5 -11 10 0 6 2 10 4 10 3 0 8 -4 11 -10z
m919 -86 c3 -8 2 -12 -4 -9 -6 3 -10 10 -10 16 0 14 7 11 14 -7z m-1634 -470
c0 -8 -19 -13 -24 -6 -3 5 1 9 9 9 8 0 15 -2 15 -3z m960 2 c0 -3 -4 -8 -10
-11 -5 -3 -10 -1 -10 4 0 6 5 11 10 11 6 0 10 -2 10 -4z m-966 -324 c3 -5 -1
-9 -9 -9 -8 0 -12 4 -9 9 3 4 7 8 9 8 2 0 6 -4 9 -8z m246 -236 c0 -3 -4 -8
-10 -11 -5 -3 -10 -1 -10 4 0 6 5 11 10 11 6 0 10 -2 10 -4z m155 -6 c3 -5 1
-10 -4 -10 -6 0 -11 5 -11 10 0 6 2 10 4 10 3 0 8 -4 11 -10z m0 -160 c3 -5 1
-10 -4 -10 -6 0 -11 5 -11 10 0 6 2 10 4 10 3 0 8 -4 11 -10z m1125 0 c0 -5
-5 -10 -11 -10 -5 0 -7 5 -4 10 3 6 8 10 11 10 2 0 4 -4 4 -10z m160 6 c0 -3
-4 -8 -10 -11 -5 -3 -10 -1 -10 4 0 6 5 11 10 11 6 0 10 -2 10 -4z m-165 -166
c3 -5 1 -10 -4 -10 -6 0 -11 5 -11 10 0 6 2 10 4 10 3 0 8 -4 11 -10z m5 -160
c0 -5 -2 -10 -4 -10 -3 0 -8 5 -11 10 -3 6 -1 10 4 10 6 0 11 -4 11 -10z
m-245 -239 c3 -5 2 -12 -3 -15 -5 -3 -9 1 -9 9 0 17 3 19 12 6z m5 -157 c0 -8
-19 -13 -24 -6 -3 5 1 9 9 9 8 0 15 -2 15 -3z m4 -162 c3 -5 -1 -9 -9 -9 -8 0
-12 4 -9 9 3 4 7 8 9 8 2 0 6 -4 9 -8z m-1326 -167 c-3 -3 -9 2 -12 12 -6 14
-5 15 5 6 7 -7 10 -15 7 -18z m362 -155 c0 -5 -2 -10 -4 -10 -3 0 -8 5 -11 10
-3 6 -1 10 4 10 6 0 11 -4 11 -10z m1515 -240 c3 -5 1 -10 -4 -10 -6 0 -11 5
-11 10 0 6 2 10 4 10 3 0 8 -4 11 -10z m165 0 c0 -5 -5 -10 -11 -10 -5 0 -7 5
-4 10 3 6 8 10 11 10 2 0 4 -4 4 -10z m-1600 -160 c0 -5 -5 -10 -11 -10 -5 0
-7 5 -4 10 3 6 8 10 11 10 2 0 4 -4 4 -10z m160 6 c0 -3 -4 -8 -10 -11 -5 -3
-10 -1 -10 4 0 6 5 11 10 11 6 0 10 -2 10 -4z m1275 -6 c3 -5 1 -10 -4 -10 -6
0 -11 5 -11 10 0 6 2 10 4 10 3 0 8 -4 11 -10z m1125 0 c0 -5 -5 -10 -11 -10
-5 0 -7 5 -4 10 3 6 8 10 11 10 2 0 4 -4 4 -10z m-480 -320 c0 -5 -5 -10 -11
-10 -5 0 -7 5 -4 10 3 6 8 10 11 10 2 0 4 -4 4 -10z m0 -154 c0 -3 -4 -8 -10
-11 -5 -3 -10 -1 -10 4 0 6 5 11 10 11 6 0 10 -2 10 -4z m155 -6 c3 -5 1 -10
-4 -10 -6 0 -11 5 -11 10 0 6 2 10 4 10 3 0 8 -4 11 -10z m-1360 -80 c3 -5 1
-10 -4 -10 -6 0 -11 5 -11 10 0 6 2 10 4 10 3 0 8 -4 11 -10z m1925 -640 c0
-5 -2 -10 -4 -10 -3 0 -8 5 -11 10 -3 6 -1 10 4 10 6 0 11 -4 11 -10z m0 -154
c0 -2 -7 -7 -16 -10 -8 -3 -12 -2 -9 4 6 10 25 14 25 6z m-1680 -86 c0 -5 -5
-10 -11 -10 -5 0 -7 5 -4 10 3 6 8 10 11 10 2 0 4 -4 4 -10z m160 0 c0 -5 -2
-10 -4 -10 -3 0 -8 5 -11 10 -3 6 -1 10 4 10 6 0 11 -4 11 -10z m-160 -160 c0
-5 -5 -10 -11 -10 -5 0 -7 5 -4 10 3 6 8 10 11 10 2 0 4 -4 4 -10z m1680 -240
c0 -5 -2 -10 -4 -10 -3 0 -8 5 -11 10 -3 6 -1 10 4 10 6 0 11 -4 11 -10z m240
-80 c0 -5 -5 -10 -11 -10 -5 0 -7 5 -4 10 3 6 8 10 11 10 2 0 4 -4 4 -10z
m160 6 c0 -3 -4 -8 -10 -11 -5 -3 -10 -1 -10 4 0 6 5 11 10 11 6 0 10 -2 10
-4z m-406 -84 c3 -5 -1 -9 -9 -9 -8 0 -12 4 -9 9 3 4 7 8 9 8 2 0 6 -4 9 -8z
m-874 -82 c0 -5 -2 -10 -4 -10 -3 0 -8 5 -11 10 -3 6 -1 10 4 10 6 0 11 -4 11
-10z m1115 0 c3 -5 1 -10 -4 -10 -6 0 -11 5 -11 10 0 6 2 10 4 10 3 0 8 -4 11
-10z m729 -78 c3 -5 -1 -9 -9 -9 -8 0 -12 4 -9 9 3 4 7 8 9 8 2 0 6 -4 9 -8z
m-2004 -76 c0 -3 -4 -8 -10 -11 -5 -3 -10 -1 -10 4 0 6 5 11 10 11 6 0 10 -2
10 -4z m160 -6 c0 -5 -2 -10 -4 -10 -3 0 -8 5 -11 10 -3 6 -1 10 4 10 6 0 11
-4 11 -10z m480 -474 c0 -3 -4 -8 -10 -11 -5 -3 -10 -1 -10 4 0 6 5 11 10 11
6 0 10 -2 10 -4z m0 -160 c0 -3 -4 -8 -10 -11 -5 -3 -10 -1 -10 4 0 6 5 11 10
11 6 0 10 -2 10 -4z m160 -6 c0 -5 -2 -10 -4 -10 -3 0 -8 5 -11 10 -3 6 -1 10
4 10 6 0 11 -4 11 -10z m955 -160 c3 -5 1 -10 -4 -10 -6 0 -11 5 -11 10 0 6 2
10 4 10 3 0 8 -4 11 -10z m5 -160 c0 -5 -2 -10 -4 -10 -3 0 -8 5 -11 10 -3 6
-1 10 4 10 6 0 11 -4 11 -10z m0 -160 c0 -5 -5 -10 -11 -10 -5 0 -7 5 -4 10 3
6 8 10 11 10 2 0 4 -4 4 -10z m875 -248 c-3 -3 -11 0 -18 7 -9 10 -8 11 6 5
10 -3 15 -9 12 -12z m330 -72 c3 -6 -1 -7 -9 -4 -18 7 -21 14 -7 14 6 0 13 -4
16 -10z m-490 -69 c3 -5 2 -12 -3 -15 -5 -3 -9 1 -9 9 0 17 3 19 12 6z m165
-11 c0 -5 -5 -10 -11 -10 -5 0 -7 5 -4 10 3 6 8 10 11 10 2 0 4 -4 4 -10z
m-283 -165 c0 -8 -4 -12 -9 -9 -5 3 -6 10 -3 15 9 13 12 11 12 -6z m600 -150
c0 -8 -4 -12 -9 -9 -5 3 -6 10 -3 15 9 13 12 11 12 -6z m-1917 -5 c0 -5 -2
-10 -4 -10 -3 0 -8 5 -11 10 -3 6 -1 10 4 10 6 0 11 -4 11 -10z m1604 2 c3 -5
-1 -9 -9 -9 -8 0 -12 4 -9 9 3 4 7 8 9 8 2 0 6 -4 9 -8z m151 -1 c3 -5 2 -12
-3 -15 -5 -3 -9 1 -9 9 0 17 3 19 12 6z m-875 -241 c0 -5 -5 -10 -11 -10 -5 0
-7 5 -4 10 3 6 8 10 11 10 2 0 4 -4 4 -10z m160 0 c0 -5 -5 -10 -11 -10 -5 0
-7 5 -4 10 3 6 8 10 11 10 2 0 4 -4 4 -10z m-165 -160 c3 -5 1 -10 -4 -10 -6
0 -11 5 -11 10 0 6 2 10 4 10 3 0 8 -4 11 -10z m0 -160 c3 -5 1 -10 -4 -10 -6
0 -11 5 -11 10 0 6 2 10 4 10 3 0 8 -4 11 -10z m1285 0 c0 -5 -5 -10 -11 -10
-5 0 -7 5 -4 10 3 6 8 10 11 10 2 0 4 -4 4 -10z m-5 -160 c3 -5 1 -10 -4 -10
-6 0 -11 5 -11 10 0 6 2 10 4 10 3 0 8 -4 11 -10z m5 -160 c0 -5 -2 -10 -4
-10 -3 0 -8 5 -11 10 -3 6 -1 10 4 10 6 0 11 -4 11 -10z m-880 -396 c0 -8 -19
-13 -24 -6 -3 5 1 9 9 9 8 0 15 -2 15 -3z m1040 -244 c0 -5 -5 -10 -11 -10 -5
0 -7 5 -4 10 3 6 8 10 11 10 2 0 4 -4 4 -10z m155 0 c3 -5 1 -10 -4 -10 -6 0
-11 5 -11 10 0 6 2 10 4 10 3 0 8 -4 11 -10z m-1201 -78 c3 -5 -1 -9 -9 -9 -8
0 -12 4 -9 9 3 4 7 8 9 8 2 0 6 -4 9 -8z m1046 -76 c0 -3 -4 -8 -10 -11 -5 -3
-10 -1 -10 4 0 6 5 11 10 11 6 0 10 -2 10 -4z m160 -6 c0 -5 -2 -10 -4 -10 -3
0 -8 5 -11 10 -3 6 -1 10 4 10 6 0 11 -4 11 -10z m-880 -560 c0 -5 -5 -10 -11
-10 -5 0 -7 5 -4 10 3 6 8 10 11 10 2 0 4 -4 4 -10z m1160 -144 c0 -2 -8 -10
-17 -17 -16 -13 -17 -12 -4 4 13 16 21 21 21 13z m-1485 -96 c3 -5 1 -10 -4
-10 -6 0 -11 5 -11 10 0 6 2 10 4 10 3 0 8 -4 11 -10z m1760 -389 c3 -5 2 -12
-3 -15 -5 -3 -9 1 -9 9 0 17 3 19 12 6z m-155 -11 c0 -5 -2 -10 -4 -10 -3 0
-8 5 -11 10 -3 6 -1 10 4 10 6 0 11 -4 11 -10z m-1200 -80 c0 -5 -2 -10 -4
-10 -3 0 -8 5 -11 10 -3 6 -1 10 4 10 6 0 11 -4 11 -10z m880 -234 c0 -3 -4
-8 -10 -11 -5 -3 -10 -1 -10 4 0 6 5 11 10 11 6 0 10 -2 10 -4z m240 -406 c0
-5 -2 -10 -4 -10 -3 0 -8 5 -11 10 -3 6 -1 10 4 10 6 0 11 -4 11 -10z m155 0
c3 -5 1 -10 -4 -10 -6 0 -11 5 -11 10 0 6 2 10 4 10 3 0 8 -4 11 -10z m165 6
c0 -3 -4 -8 -10 -11 -5 -3 -10 -1 -10 4 0 6 5 11 10 11 6 0 10 -2 10 -4z
m-685 -85 c3 -5 2 -12 -3 -15 -5 -3 -9 1 -9 9 0 17 3 19 12 6z m-440 -81 c3
-5 1 -10 -4 -10 -6 0 -11 5 -11 10 0 6 2 10 4 10 3 0 8 -4 11 -10z m965 0 c0
-5 -2 -10 -4 -10 -3 0 -8 5 -11 10 -3 6 -1 10 4 10 6 0 11 -4 11 -10z m-160
-154 c0 -3 -4 -8 -10 -11 -5 -3 -10 -1 -10 4 0 6 5 11 10 11 6 0 10 -2 10 -4z
m160 -6 c0 -5 -2 -10 -4 -10 -3 0 -8 5 -11 10 -3 6 -1 10 4 10 6 0 11 -4 11
-10z m480 -1274 c0 -3 -4 -8 -10 -11 -5 -3 -10 -1 -10 4 0 6 5 11 10 11 6 0
10 -2 10 -4z m-89 -133 c13 -16 12 -17 -3 -4 -17 13 -22 21 -14 21 2 0 10 -8
17 -17z m89 -27 c0 -3 -4 -8 -10 -11 -5 -3 -10 -1 -10 4 0 6 5 11 10 11 6 0
10 -2 10 -4z m155 -6 c3 -5 1 -10 -4 -10 -6 0 -11 5 -11 10 0 6 2 10 4 10 3 0
8 -4 11 -10z m0 -160 c3 -5 1 -10 -4 -10 -6 0 -11 5 -11 10 0 6 2 10 4 10 3 0
8 -4 11 -10z"/>
<path d="M16750 29663 c-51 -9 -145 -47 -194 -78 -283 -183 -327 -581 -92
-821 106 -108 232 -162 379 -162 287 0 515 213 534 498 17 260 -149 488 -404
554 -56 15 -164 19 -223 9z"/>
<path d="M16205 27078 c-216 -28 -412 -154 -539 -348 -43 -65 -91 -175 -101
-227 -2 -15 -9 -50 -14 -78 -22 -119 8 -325 66 -439 158 -314 470 -480 808
-430 309 45 554 267 634 574 27 101 23 315 -6 405 -122 371 -468 592 -848 543z"/>
<path d="M12448 24826 c-13 -19 -89 -132 -169 -253 -194 -289 -250 -382 -242
-396 3 -7 3 -9 -2 -5 -9 9 -15 0 -135 -199 -87 -146 -91 -153 -83 -166 3 -5 2
-7 -4 -4 -8 5 -57 -67 -72 -108 -2 -5 -10 -17 -18 -26 -8 -9 -15 -26 -16 -37
0 -11 -4 -19 -7 -17 -7 5 -50 -76 -50 -93 0 -6 -4 -12 -9 -14 -11 -4 -105
-183 -231 -438 -51 -102 -96 -192 -101 -200 -5 -8 -12 -22 -15 -30 -4 -8 -28
-61 -55 -118 -27 -57 -49 -105 -49 -107 0 -2 -11 -28 -24 -57 -81 -180 -90
-201 -88 -210 1 -5 -2 -8 -8 -8 -5 0 -10 -6 -10 -14 0 -7 -11 -39 -25 -70 -14
-32 -22 -63 -19 -69 4 -7 3 -9 -1 -4 -5 4 -24 -30 -42 -75 -18 -46 -38 -91
-43 -100 -6 -10 -10 -24 -10 -32 0 -8 -6 -27 -14 -43 -8 -15 -24 -53 -35 -83
-11 -30 -35 -95 -55 -145 -55 -143 -116 -325 -108 -325 4 0 1 -4 -6 -8 -7 -5
-14 -22 -15 -39 -1 -17 -4 -29 -6 -27 -4 4 -97 -270 -104 -306 -2 -8 -13 -44
-24 -80 -12 -36 -27 -85 -34 -110 -16 -57 -13 -48 -28 -98 -6 -23 -9 -46 -6
-51 3 -5 1 -11 -5 -13 -5 -1 -17 -29 -25 -60 -8 -32 -22 -84 -30 -115 -9 -32
-18 -69 -20 -83 -3 -14 -14 -56 -25 -95 -11 -38 -18 -76 -15 -82 2 -7 1 -13
-4 -13 -8 0 -34 -105 -35 -145 -1 -11 -4 -22 -7 -25 -9 -8 -53 -212 -53 -252
-1 -20 -4 -34 -8 -31 -5 2 -8 -2 -9 -9 -1 -18 -6 -48 -13 -78 -3 -14 -10 -47
-16 -75 -5 -27 -12 -61 -15 -75 -3 -14 -8 -45 -11 -70 -4 -25 -10 -55 -15 -67
-6 -16 -5 -23 4 -23 9 0 9 -2 0 -8 -7 -5 -14 -33 -15 -64 -2 -31 -5 -54 -8
-53 -3 2 -14 -51 -24 -118 -10 -67 -20 -129 -21 -137 -4 -22 -14 -87 -22 -145
-4 -27 -7 -65 -8 -82 0 -18 -2 -33 -5 -33 -3 0 -6 -8 -7 -17 -4 -83 -12 -163
-16 -170 -7 -11 -21 -165 -22 -230 0 -28 -3 -49 -7 -47 -4 3 -6 -4 -6 -13 1
-10 -2 -47 -5 -83 -16 -165 -22 -258 -32 -445 -3 -66 -8 -126 -11 -133 -2 -7
1 -23 7 -34 6 -11 7 -18 1 -14 -13 8 -16 -105 -16 -614 0 -470 5 -680 17 -680
4 0 3 -8 -2 -19 -6 -10 -8 -21 -5 -23 2 -3 7 -54 9 -114 5 -104 8 -149 19
-274 3 -30 8 -91 11 -135 3 -44 8 -91 10 -105 2 -14 6 -56 10 -93 3 -37 8 -76
10 -85 1 -9 6 -48 10 -87 3 -38 8 -85 11 -102 2 -18 6 -48 8 -65 8 -59 37
-262 41 -283 2 -11 4 -28 4 -38 1 -12 5 -16 14 -11 9 6 9 5 0 -8 -7 -8 -11
-17 -9 -19 4 -4 9 -33 21 -116 3 -21 8 -44 10 -51 3 -7 7 -34 11 -60 3 -26 10
-48 14 -50 5 -2 7 -9 4 -16 -3 -7 0 -33 6 -57 6 -24 12 -53 14 -64 7 -36 19
-97 42 -205 2 -14 8 -34 11 -45 4 -11 8 -27 9 -35 9 -53 29 -130 34 -130 3 0
6 -8 6 -17 2 -50 100 -401 145 -517 10 -27 19 -52 19 -57 0 -5 11 -32 24 -61
13 -29 58 -133 101 -230 42 -98 81 -178 86 -178 5 0 8 -3 7 -8 -6 -16 35 -91
46 -85 6 3 8 3 4 -1 -10 -12 13 -67 25 -59 6 3 7 1 3 -5 -7 -11 19 -60 39 -74
5 -4 7 -8 3 -8 -4 0 2 -18 15 -40 12 -23 29 -53 37 -68 59 -108 74 -131 83
-125 6 3 7 1 3 -5 -7 -12 40 -102 53 -102 4 0 8 -6 8 -12 1 -21 104 -183 115
-180 5 1 7 -2 4 -7 -4 -5 16 -43 42 -83 27 -40 64 -96 82 -125 18 -29 37 -50
43 -46 6 3 7 1 3 -5 -6 -10 30 -67 170 -267 26 -38 52 -71 56 -73 4 -2 8 -8 8
-13 0 -6 21 -38 48 -73 26 -35 55 -75 64 -88 27 -38 200 -271 210 -283 5 -5
50 -64 101 -131 51 -66 103 -134 117 -151 14 -17 35 -44 47 -60 12 -15 30 -38
40 -49 10 -12 29 -36 43 -54 43 -56 62 -75 72 -72 5 1 6 -2 3 -9 -4 -6 1 -19
11 -29 11 -10 39 -43 63 -74 24 -30 48 -53 54 -49 5 3 7 1 3 -5 -5 -9 111
-154 274 -342 26 -30 61 -70 76 -89 16 -18 43 -48 59 -66 17 -18 50 -57 75
-86 25 -30 56 -66 70 -80 14 -15 44 -49 67 -76 23 -26 56 -64 74 -83 17 -19
70 -78 118 -130 47 -52 107 -117 132 -145 26 -27 70 -75 97 -105 47 -51 145
-154 297 -310 35 -36 128 -126 207 -200 264 -248 759 -750 1119 -1134 41 -43
90 -95 109 -116 19 -20 76 -81 125 -135 50 -54 106 -115 125 -136 19 -21 69
-75 110 -120 106 -117 110 -120 184 -204 38 -41 73 -72 79 -68 6 3 7 1 3 -6
-5 -7 9 -29 33 -54 22 -23 53 -56 68 -73 16 -17 57 -64 93 -104 36 -40 73 -83
83 -94 15 -18 91 -104 122 -139 6 -7 62 -70 125 -142 63 -71 126 -143 141
-160 15 -16 48 -55 75 -85 26 -30 51 -56 56 -58 4 -2 8 -8 8 -12 0 -5 10 -20
23 -33 25 -27 79 -90 167 -197 34 -41 69 -81 78 -88 9 -6 12 -12 7 -12 -4 0 4
-11 19 -25 14 -13 26 -27 26 -30 -1 -3 8 -18 19 -33 22 -28 74 -98 174 -234
32 -42 57 -79 57 -82 0 -11 77 -115 82 -111 3 3 5 -1 5 -8 0 -11 88 -155 102
-167 4 -3 12 -17 18 -32 7 -16 17 -28 23 -28 6 0 9 -4 6 -9 -3 -5 2 -19 12
-32 37 -49 262 -455 283 -512 6 -15 15 -27 20 -27 5 0 9 -5 9 -12 0 -7 31 -75
69 -152 37 -78 71 -151 75 -164 4 -12 12 -20 17 -17 5 3 6 0 4 -7 -3 -8 13
-54 36 -103 24 -50 44 -96 45 -104 1 -7 7 -18 13 -24 6 -6 11 -17 11 -24 0 -7
9 -32 19 -56 33 -70 121 -301 121 -314 0 -7 5 -13 12 -13 6 0 9 -3 6 -6 -4 -3
12 -56 34 -117 22 -62 51 -148 64 -192 14 -44 29 -89 34 -100 8 -18 24 -71
109 -362 12 -39 21 -79 21 -88 0 -10 5 -13 12 -9 6 4 8 3 5 -2 -6 -10 8 -74
63 -294 17 -69 35 -143 40 -165 4 -22 18 -85 29 -140 12 -55 29 -138 37 -185
17 -94 22 -115 24 -115 1 0 4 -20 6 -45 3 -25 9 -47 12 -50 4 -3 8 -30 10 -60
1 -30 6 -57 10 -60 4 -3 7 -18 8 -35 0 -28 9 -99 18 -155 3 -14 7 -45 10 -70
3 -25 8 -56 11 -70 3 -14 7 -50 10 -80 6 -72 15 -156 21 -200 2 -19 6 -62 9
-95 3 -33 7 -82 11 -110 7 -55 11 -129 13 -249 0 -44 3 -77 5 -75 5 5 7 12 25
109 6 30 14 66 17 80 3 14 7 36 9 50 2 14 13 79 24 145 11 66 22 138 25 160 3
22 8 56 11 75 3 19 7 61 9 92 3 32 7 61 9 65 3 5 8 44 11 88 4 44 9 98 11 120
4 51 16 205 20 270 7 119 7 374 0 385 -5 8 -4 11 1 7 14 -8 7 403 -11 638 -17
232 -27 346 -39 438 -2 15 -7 55 -11 90 -5 34 -9 71 -11 82 -1 11 -3 30 -3 43
-1 13 -4 21 -9 18 -4 -2 -7 10 -6 28 1 18 -4 70 -12 117 -7 46 -15 98 -18 114
-2 17 -5 38 -5 48 -1 10 -5 16 -10 13 -5 -4 -7 3 -4 14 3 11 0 49 -7 83 -7 34
-14 71 -16 82 -2 11 -11 54 -19 95 -8 41 -17 84 -19 95 -3 11 -14 63 -26 115
-12 52 -24 106 -26 120 -8 39 -104 413 -111 430 -3 8 -6 18 -5 21 3 18 -55
188 -63 182 -4 -4 -5 -2 -1 5 7 12 -40 190 -54 202 -3 3 -5 11 -6 18 -3 38 -5
43 -14 37 -5 -3 -7 0 -4 8 2 7 -27 108 -66 223 -40 115 -74 217 -77 226 -3 10
-9 15 -14 12 -5 -3 -6 1 -3 9 3 8 -10 54 -29 103 -20 49 -38 99 -42 112 -3 12
-9 20 -13 18 -4 -2 -8 6 -8 17 -1 12 -10 45 -21 72 -11 28 -25 61 -31 75 -5
14 -10 28 -11 32 -2 7 -37 93 -78 188 -8 19 -19 44 -23 55 -4 11 -15 36 -23
55 -8 19 -29 69 -46 110 -46 108 -53 120 -64 113 -6 -4 -7 -1 -2 6 6 11 -48
147 -64 161 -3 3 -7 10 -8 17 -1 6 -16 41 -33 77 -16 37 -30 71 -30 76 0 6 -4
10 -10 10 -5 0 -10 6 -10 13 0 11 -238 496 -250 507 -3 3 -36 67 -75 142 -38
75 -73 134 -79 131 -5 -3 -7 -2 -3 3 5 9 -12 48 -51 117 -22 37 -46 79 -85
149 -11 20 -25 34 -30 31 -6 -3 -7 -1 -3 5 4 7 -37 87 -90 179 -98 170 -362
604 -373 613 -10 8 -31 44 -37 63 -4 9 -10 17 -15 17 -5 0 -9 4 -9 10 0 10
-219 346 -244 373 -9 9 -16 19 -16 22 0 9 -71 109 -82 116 -5 3 -8 8 -7 10 8
9 -63 99 -73 93 -7 -5 -8 -2 -4 5 8 13 -40 91 -55 91 -5 0 -8 3 -7 8 4 14 -34
62 -45 55 -6 -3 -7 -1 -3 6 9 13 -28 64 -39 53 -3 -4 -6 -2 -5 3 4 19 0 31
-18 51 -9 10 -25 30 -34 44 -33 48 -78 111 -88 123 -6 7 -42 55 -81 107 -38
52 -77 101 -86 108 -9 6 -13 12 -9 12 6 0 -47 75 -64 90 -3 3 -17 21 -30 40
-54 78 -149 188 -156 182 -4 -4 -4 -2 -1 4 4 6 -5 24 -18 38 -14 15 -25 29
-25 31 0 5 -23 33 -65 81 -11 12 -29 35 -40 50 -11 16 -36 45 -55 65 -19 20
-37 40 -39 45 -11 26 -54 73 -62 68 -5 -3 -8 -1 -7 4 3 9 -56 85 -127 167 -15
17 -47 55 -73 85 -26 30 -64 72 -84 93 -21 21 -38 41 -38 44 0 2 -6 10 -12 17
-7 7 -46 49 -87 94 -40 45 -78 79 -84 75 -6 -4 -7 -1 -2 7 4 7 3 15 -2 19 -10
6 -115 144 -183 240 -19 27 -39 47 -44 44 -5 -4 -6 -1 -2 5 3 6 -1 17 -9 25
-8 9 -15 18 -15 20 0 6 -172 254 -189 274 -6 7 -11 15 -11 18 0 8 -82 129 -95
140 -7 6 -12 14 -13 18 0 4 -20 38 -44 75 -24 37 -45 72 -47 77 -2 6 -17 26
-32 46 -16 20 -29 40 -29 44 0 10 -62 99 -72 103 -4 2 -6 7 -3 12 2 4 -4 18
-15 30 -11 12 -22 31 -25 41 -4 11 -11 19 -16 19 -5 0 -9 6 -9 13 -1 16 -66
118 -72 112 -3 -3 -5 1 -5 7 0 7 -50 96 -111 197 -62 101 -112 187 -112 192 0
4 -8 13 -17 18 -10 6 -14 11 -9 11 5 0 4 6 -2 13 -5 6 -22 35 -37 62 -16 28
-31 52 -34 55 -3 3 -19 30 -35 60 -16 30 -38 66 -48 79 -10 13 -18 29 -18 37
0 7 -3 14 -7 16 -5 2 -16 19 -27 38 -10 19 -39 71 -64 115 -25 44 -68 122 -97
172 -28 51 -55 91 -58 88 -4 -3 -5 -2 -2 1 8 11 -47 104 -58 97 -6 -3 -7 -1
-3 5 6 11 -46 115 -55 109 -2 -1 -3 0 -2 2 1 2 -8 22 -21 45 -74 133 -165 303
-205 381 -24 50 -48 92 -51 95 -4 3 -10 17 -13 32 -4 15 -13 33 -20 40 -6 7
-13 19 -14 25 -1 6 -23 52 -48 103 -25 51 -45 98 -45 104 0 7 -5 17 -12 24 -6
6 -13 17 -14 24 -1 7 -15 42 -32 78 -47 103 -68 152 -83 195 -8 22 -16 42 -19
45 -3 3 -11 23 -19 45 -8 22 -21 56 -29 75 -9 19 -16 37 -17 40 -1 7 -52 142
-76 202 -11 26 -19 52 -19 58 0 6 -8 30 -19 53 -10 23 -22 57 -26 75 -4 19
-11 30 -17 26 -6 -4 -8 -2 -5 3 6 9 -45 189 -76 268 -7 17 -12 32 -12 35 -4
26 -19 77 -25 85 -5 6 -8 13 -8 18 1 31 -15 77 -24 71 -7 -4 -8 -3 -4 4 4 7
-2 45 -13 84 -39 141 -118 454 -137 543 -9 44 -13 62 -24 110 -7 28 -14 64
-17 80 -7 45 -10 61 -32 170 -12 54 -24 122 -27 150 -4 27 -10 52 -15 53 -5 2
-7 7 -4 11 2 5 -6 77 -19 162 -14 85 -27 172 -30 194 -3 22 -8 54 -10 70 -3
17 -10 73 -16 125 -6 52 -13 109 -15 125 -12 93 -15 127 -20 190 -4 39 -8 88
-10 110 -3 22 -7 72 -10 110 -3 39 -7 93 -10 120 -24 268 -41 903 -32 1228 1
42 -2 77 -6 77 -5 0 -5 6 0 13 12 20 12 88 -1 80 -8 -5 -8 -3 0 8 7 8 14 90
18 209 4 107 8 224 11 260 2 36 7 101 10 145 3 44 8 116 12 160 4 44 7 106 7
137 1 32 3 58 6 58 3 0 6 15 6 33 1 17 4 55 7 82 4 28 9 77 12 110 4 33 8 76
10 95 3 19 7 62 11 95 3 33 7 71 9 85 2 14 6 48 10 75 3 28 8 66 11 85 3 19 7
55 10 80 3 25 7 56 9 70 3 14 14 86 24 160 11 74 35 216 52 315 17 99 32 201
33 227 0 25 4 44 8 42 3 -2 9 15 13 38 4 24 9 52 11 63 10 51 24 122 29 145
11 52 19 96 19 118 1 12 4 22 9 22 4 0 6 3 5 8 -1 4 4 31 10 60 7 30 10 57 7
62 -3 5 -2 10 3 12 4 1 16 41 26 88 9 47 33 150 52 230 20 80 37 152 39 160 2
8 22 87 45 175 23 88 44 167 46 175 11 48 38 144 55 200 11 36 22 73 24 83 2
10 16 55 30 102 15 46 23 90 19 96 -4 7 -3 9 3 6 6 -4 14 7 18 26 4 17 9 34
10 37 1 3 4 12 8 20 11 29 79 241 81 253 1 7 5 18 9 25 5 6 5 17 2 22 -3 6 -2
10 3 10 11 0 33 70 25 83 -3 6 -2 7 3 4 5 -3 17 14 26 39 8 24 14 44 12 44 -2
0 -14 -15 -26 -34z m-838 -1620 c0 -3 -4 -8 -10 -11 -5 -3 -10 -1 -10 4 0 6 5
11 10 11 6 0 10 -2 10 -4z m0 -166 c0 -5 -2 -10 -4 -10 -3 0 -8 5 -11 10 -3 6
-1 10 4 10 6 0 11 -4 11 -10z m160 0 c0 -5 -2 -10 -4 -10 -3 0 -8 5 -11 10 -3
6 -1 10 4 10 6 0 11 -4 11 -10z m-480 -2720 c0 -5 -2 -10 -4 -10 -3 0 -8 5
-11 10 -3 6 -1 10 4 10 6 0 11 -4 11 -10z m0 -160 c0 -5 -2 -10 -4 -10 -3 0
-8 5 -11 10 -3 6 -1 10 4 10 6 0 11 -4 11 -10z m160 0 c0 -5 -5 -10 -11 -10
-5 0 -7 5 -4 10 3 6 8 10 11 10 2 0 4 -4 4 -10z m-160 -480 c0 -5 -5 -10 -11
-10 -5 0 -7 5 -4 10 3 6 8 10 11 10 2 0 4 -4 4 -10z m160 0 c0 -5 -5 -10 -11
-10 -5 0 -7 5 -4 10 3 6 8 10 11 10 2 0 4 -4 4 -10z m-320 -160 c0 -5 -2 -10
-4 -10 -3 0 -8 5 -11 10 -3 6 -1 10 4 10 6 0 11 -4 11 -10z m155 0 c3 -5 1
-10 -4 -10 -6 0 -11 5 -11 10 0 6 2 10 4 10 3 0 8 -4 11 -10z m245 -354 c0 -2
-7 -7 -16 -10 -8 -3 -12 -2 -9 4 6 10 25 14 25 6z m-880 -286 c0 -5 -5 -10
-11 -10 -5 0 -7 5 -4 10 3 6 8 10 11 10 2 0 4 -4 4 -10z m-485 -79 c3 -5 2
-12 -3 -15 -5 -3 -9 1 -9 9 0 17 3 19 12 6z m485 -81 c0 -5 -2 -10 -4 -10 -3
0 -8 5 -11 10 -3 6 -1 10 4 10 6 0 11 -4 11 -10z m155 0 c3 -5 1 -10 -4 -10
-6 0 -11 5 -11 10 0 6 2 10 4 10 3 0 8 -4 11 -10z m-718 -395 c0 -8 -4 -12 -9
-9 -5 3 -6 10 -3 15 9 13 12 11 12 -6z m1278 -325 c3 -5 1 -10 -4 -10 -6 0
-11 5 -11 10 0 6 2 10 4 10 3 0 8 -4 11 -10z m-1035 -240 c0 -5 -5 -10 -11
-10 -5 0 -7 5 -4 10 3 6 8 10 11 10 2 0 4 -4 4 -10z m160 0 c0 -5 -5 -10 -11
-10 -5 0 -7 5 -4 10 3 6 8 10 11 10 2 0 4 -4 4 -10z m-165 -160 c3 -5 1 -10
-4 -10 -6 0 -11 5 -11 10 0 6 2 10 4 10 3 0 8 -4 11 -10z m5 -160 c0 -5 -2
-10 -4 -10 -3 0 -8 5 -11 10 -3 6 -1 10 4 10 6 0 11 -4 11 -10z m960 -314 c0
-3 -4 -8 -10 -11 -5 -3 -10 -1 -10 4 0 6 5 11 10 11 6 0 10 -2 10 -4z m0 -166
c0 -5 -2 -10 -4 -10 -3 0 -8 5 -11 10 -3 6 -1 10 4 10 6 0 11 -4 11 -10z m160
0 c0 -5 -2 -10 -4 -10 -3 0 -8 5 -11 10 -3 6 -1 10 4 10 6 0 11 -4 11 -10z
m-710 -556 c0 -8 -19 -13 -24 -6 -3 5 1 9 9 9 8 0 15 -2 15 -3z m-16 -162 c3
-5 -1 -9 -9 -9 -8 0 -12 4 -9 9 3 4 7 8 9 8 2 0 6 -4 9 -8z m1 -151 c3 -5 2
-12 -3 -15 -5 -3 -9 1 -9 9 0 17 3 19 12 6z m965 -647 c0 -8 -19 -13 -24 -6
-3 5 1 9 9 9 8 0 15 -2 15 -3z m-1520 -84 c0 -5 -2 -10 -4 -10 -3 0 -8 5 -11
10 -3 6 -1 10 4 10 6 0 11 -4 11 -10z m1120 0 c0 -5 -2 -10 -4 -10 -3 0 -8 5
-11 10 -3 6 -1 10 4 10 6 0 11 -4 11 -10z m160 0 c0 -5 -5 -10 -11 -10 -5 0
-7 5 -4 10 3 6 8 10 11 10 2 0 4 -4 4 -10z m244 -78 c3 -5 -1 -9 -9 -9 -8 0
-12 4 -9 9 3 4 7 8 9 8 2 0 6 -4 9 -8z m-244 -82 c0 -5 -5 -10 -11 -10 -5 0
-7 5 -4 10 3 6 8 10 11 10 2 0 4 -4 4 -10z m237 -75 c0 -8 -4 -12 -9 -9 -5 3
-6 10 -3 15 9 13 12 11 12 -6z m-1277 -5 c0 -5 -2 -10 -4 -10 -3 0 -8 5 -11
10 -3 6 -1 10 4 10 6 0 11 -4 11 -10z m560 -880 c0 -5 -5 -10 -11 -10 -5 0 -7
5 -4 10 3 6 8 10 11 10 2 0 4 -4 4 -10z m-5 -160 c3 -5 1 -10 -4 -10 -6 0 -11
5 -11 10 0 6 2 10 4 10 3 0 8 -4 11 -10z m0 -160 c3 -5 1 -10 -4 -10 -6 0 -11
5 -11 10 0 6 2 10 4 10 3 0 8 -4 11 -10z m725 -80 c0 -5 -5 -10 -11 -10 -5 0
-7 5 -4 10 3 6 8 10 11 10 2 0 4 -4 4 -10z m155 1 c3 -5 2 -12 -3 -15 -5 -3
-9 1 -9 9 0 17 3 19 12 6z m959 -199 c3 -5 -1 -9 -9 -9 -8 0 -12 4 -9 9 3 4 7
8 9 8 2 0 6 -4 9 -8z m-1834 -362 c0 -5 -2 -10 -4 -10 -3 0 -8 5 -11 10 -3 6
-1 10 4 10 6 0 11 -4 11 -10z m160 0 c0 -5 -2 -10 -4 -10 -3 0 -8 5 -11 10 -3
6 -1 10 4 10 6 0 11 -4 11 -10z m-160 -160 c0 -5 -5 -10 -11 -10 -5 0 -7 5 -4
10 3 6 8 10 11 10 2 0 4 -4 4 -10z m160 0 c0 -5 -5 -10 -11 -10 -5 0 -7 5 -4
10 3 6 8 10 11 10 2 0 4 -4 4 -10z m1357 -235 c0 -8 -4 -12 -9 -9 -5 3 -6 10
-3 15 9 13 12 11 12 -6z m163 1 c0 -3 -4 -8 -10 -11 -5 -3 -10 -1 -10 4 0 6 5
11 10 11 6 0 10 -2 10 -4z m-1680 -240 c0 -3 -4 -8 -10 -11 -5 -3 -10 -1 -10
4 0 6 5 11 10 11 6 0 10 -2 10 -4z m155 -6 c3 -5 1 -10 -4 -10 -6 0 -11 5 -11
10 0 6 2 10 4 10 3 0 8 -4 11 -10z m485 -154 c0 -3 -4 -8 -10 -11 -5 -3 -10
-1 -10 4 0 6 5 11 10 11 6 0 10 -2 10 -4z m0 -166 c0 -5 -2 -10 -4 -10 -3 0
-8 5 -11 10 -3 6 -1 10 4 10 6 0 11 -4 11 -10z m155 0 c3 -5 1 -10 -4 -10 -6
0 -11 5 -11 10 0 6 2 10 4 10 3 0 8 -4 11 -10z m1205 -80 c0 -5 -5 -10 -11
-10 -5 0 -7 5 -4 10 3 6 8 10 11 10 2 0 4 -4 4 -10z m235 -560 c3 -5 1 -10 -4
-10 -6 0 -11 5 -11 10 0 6 2 10 4 10 3 0 8 -4 11 -10z m165 0 c0 -5 -5 -10
-11 -10 -5 0 -7 5 -4 10 3 6 8 10 11 10 2 0 4 -4 4 -10z m-165 -160 c3 -5 1
-10 -4 -10 -6 0 -11 5 -11 10 0 6 2 10 4 10 3 0 8 -4 11 -10z m-25 -74 c0 -2
-8 -10 -17 -17 -16 -13 -17 -12 -4 4 13 16 21 21 21 13z m-693 -171 c0 -8 -4
-12 -9 -9 -5 3 -6 10 -3 15 9 13 12 11 12 -6z m158 5 c3 -5 1 -10 -4 -10 -6 0
-11 5 -11 10 0 6 2 10 4 10 3 0 8 -4 11 -10z m-555 -80 c0 -5 -2 -10 -4 -10
-3 0 -8 5 -11 10 -3 6 -1 10 4 10 6 0 11 -4 11 -10z m2000 -80 c0 -5 -2 -10
-4 -10 -3 0 -8 5 -11 10 -3 6 -1 10 4 10 6 0 11 -4 11 -10z m-2000 -80 c0 -5
-2 -10 -4 -10 -3 0 -8 5 -11 10 -3 6 -1 10 4 10 6 0 11 -4 11 -10z m1995 -69
c3 -5 2 -12 -3 -15 -5 -3 -9 1 -9 9 0 17 3 19 12 6z m-155 -11 c0 -5 -2 -10
-4 -10 -3 0 -8 5 -11 10 -3 6 -1 10 4 10 6 0 11 -4 11 -10z m-646 -478 c3 -5
-1 -9 -9 -9 -8 0 -12 4 -9 9 3 4 7 8 9 8 2 0 6 -4 9 -8z m1 -151 c3 -5 2 -12
-3 -15 -5 -3 -9 1 -9 9 0 17 3 19 12 6z m1285 -331 c0 -5 -2 -10 -4 -10 -3 0
-8 5 -11 10 -3 6 -1 10 4 10 6 0 11 -4 11 -10z m-885 -240 c3 -5 1 -10 -4 -10
-6 0 -11 5 -11 10 0 6 2 10 4 10 3 0 8 -4 11 -10z m5 -160 c0 -5 -5 -10 -11
-10 -5 0 -7 5 -4 10 3 6 8 10 11 10 2 0 4 -4 4 -10z m160 0 c0 -5 -5 -10 -11
-10 -5 0 -7 5 -4 10 3 6 8 10 11 10 2 0 4 -4 4 -10z m271 -87 c13 -16 12 -17
-3 -4 -10 7 -18 15 -18 17 0 8 8 3 21 -13z m849 -67 c0 -3 -4 -8 -10 -11 -5
-3 -10 -1 -10 4 0 6 5 11 10 11 6 0 10 -2 10 -4z m155 -6 c3 -5 1 -10 -4 -10
-6 0 -11 5 -11 10 0 6 2 10 4 10 3 0 8 -4 11 -10z m5 -160 c0 -5 -2 -10 -4
-10 -3 0 -8 5 -11 10 -3 6 -1 10 4 10 6 0 11 -4 11 -10z m1035 -69 c3 -5 2
-12 -3 -15 -5 -3 -9 1 -9 9 0 17 3 19 12 6z m-625 -7 c0 -8 -19 -13 -24 -6 -3
5 1 9 9 9 8 0 15 -2 15 -3z m-890 -78 c0 -3 -4 -8 -10 -11 -5 -3 -10 -1 -10 4
0 6 5 11 10 11 6 0 10 -2 10 -4z m-560 -40 c0 -2 -7 -7 -16 -10 -8 -3 -12 -2
-9 4 6 10 25 14 25 6z m1434 -44 c3 -5 -1 -9 -9 -9 -8 0 -12 4 -9 9 3 4 7 8 9
8 2 0 6 -4 9 -8z m-1194 -82 c0 -5 -2 -10 -4 -10 -3 0 -8 5 -11 10 -3 6 -1 10
4 10 6 0 11 -4 11 -10z m155 0 c3 -5 1 -10 -4 -10 -6 0 -11 5 -11 10 0 6 2 10
4 10 3 0 8 -4 11 -10z m165 6 c0 -3 -4 -8 -10 -11 -5 -3 -10 -1 -10 4 0 6 5
11 10 11 6 0 10 -2 10 -4z m1600 -160 c0 -3 -4 -8 -10 -11 -5 -3 -10 -1 -10 4
0 6 5 11 10 11 6 0 10 -2 10 -4z m-1686 -244 c3 -5 -1 -9 -9 -9 -8 0 -12 4 -9
9 3 4 7 8 9 8 2 0 6 -4 9 -8z m6 -156 c0 -3 -4 -8 -10 -11 -5 -3 -10 -1 -10 4
0 6 5 11 10 11 6 0 10 -2 10 -4z m1200 -246 c0 -5 -2 -10 -4 -10 -3 0 -8 5
-11 10 -3 6 -1 10 4 10 6 0 11 -4 11 -10z m160 0 c0 -5 -2 -10 -4 -10 -3 0 -8
5 -11 10 -3 6 -1 10 4 10 6 0 11 -4 11 -10z m-725 -80 c3 -5 1 -10 -4 -10 -6
0 -11 5 -11 10 0 6 2 10 4 10 3 0 8 -4 11 -10z m565 -80 c0 -5 -5 -10 -11 -10
-5 0 -7 5 -4 10 3 6 8 10 11 10 2 0 4 -4 4 -10z m160 0 c0 -5 -5 -10 -11 -10
-5 0 -7 5 -4 10 3 6 8 10 11 10 2 0 4 -4 4 -10z m880 -560 c0 -5 -2 -10 -4
-10 -3 0 -8 5 -11 10 -3 6 -1 10 4 10 6 0 11 -4 11 -10z m-805 -309 c3 -5 2
-12 -3 -15 -5 -3 -9 1 -9 9 0 17 3 19 12 6z m165 -11 c0 -5 -5 -10 -11 -10 -5
0 -7 5 -4 10 3 6 8 10 11 10 2 0 4 -4 4 -10z m1250 -154 c0 -2 -8 -10 -17 -17
-16 -13 -17 -12 -4 4 13 16 21 21 21 13z m350 -806 c0 -5 -2 -10 -4 -10 -3 0
-8 5 -11 10 -3 6 -1 10 4 10 6 0 11 -4 11 -10z m-645 -640 c3 -5 1 -10 -4 -10
-6 0 -11 5 -11 10 0 6 2 10 4 10 3 0 8 -4 11 -10z m5 -156 c0 -8 -19 -13 -24
-6 -3 5 1 9 9 9 8 0 15 -2 15 -3z m560 -398 c0 -3 -4 -8 -10 -11 -5 -3 -10 -1
-10 4 0 6 5 11 10 11 6 0 10 -2 10 -4z m0 -166 c0 -5 -2 -10 -4 -10 -3 0 -8 5
-11 10 -3 6 -1 10 4 10 6 0 11 -4 11 -10z m160 0 c0 -5 -2 -10 -4 -10 -3 0 -8
5 -11 10 -3 6 -1 10 4 10 6 0 11 -4 11 -10z m235 -869 c3 -5 2 -12 -3 -15 -5
-3 -9 1 -9 9 0 17 3 19 12 6z m322 -6 c0 -8 -4 -12 -9 -9 -5 3 -6 10 -3 15 9
13 12 11 12 -6z m403 -725 c0 -5 -5 -10 -11 -10 -5 0 -7 5 -4 10 3 6 8 10 11
10 2 0 4 -4 4 -10z m-5 -2560 c3 -5 1 -10 -4 -10 -6 0 -11 5 -11 10 0 6 2 10
4 10 3 0 8 -4 11 -10z"/>
<path d="M16005 23658 c-150 -12 -318 -69 -440 -150 -74 -49 -84 -57 -161
-133 -132 -131 -217 -287 -265 -485 -21 -84 -18 -328 5 -415 51 -198 139 -352
276 -481 74 -70 98 -89 168 -131 380 -226 866 -171 1178 134 384 376 393 988
19 1369 -169 172 -379 275 -594 290 -36 3 -73 6 -81 7 -8 2 -55 -1 -105 -5z"/>
<path d="M16900 19887 c-3 -3 -30 -7 -60 -11 -67 -7 -176 -36 -248 -65 -354
-142 -609 -437 -703 -814 -28 -110 -34 -328 -13 -451 67 -405 347 -747 729
-891 39 -15 77 -29 85 -31 8 -2 33 -8 55 -14 127 -32 380 -35 512 -7 220 47
459 181 594 332 15 17 39 43 55 60 38 41 124 177 158 248 30 65 69 180 81 242
5 22 9 45 10 50 24 115 20 334 -7 440 -6 22 -12 51 -15 64 -7 38 -61 175 -95
238 -53 100 -117 185 -207 274 -227 225 -487 334 -811 338 -64 1 -118 0 -120
-2z"/>
<path d="M18550 15503 c-321 -50 -591 -243 -728 -518 -80 -161 -110 -293 -106
-470 9 -443 316 -817 757 -922 100 -24 315 -24 419 0 292 68 523 249 656 513
76 151 104 277 101 450 -3 166 -31 285 -100 420 -144 281 -416 480 -715 524
-67 9 -233 11 -284 3z"/>
<path d="M20175 11763 c-267 -27 -507 -199 -619 -445 -49 -107 -70 -205 -69
-325 3 -299 166 -557 436 -687 328 -159 720 -65 943 225 203 264 208 656 12
919 -144 192 -358 307 -585 314 -48 1 -101 1 -118 -1z"/>
<path d="M20690 8643 c-44 -7 -144 -45 -185 -71 -66 -42 -161 -147 -194 -215
-43 -87 -64 -194 -56 -286 15 -178 131 -352 288 -432 56 -29 182 -59 246 -59
226 1 428 148 504 368 27 79 29 94 25 187 -6 115 -29 191 -84 274 -76 114
-206 204 -332 230 -51 11 -159 13 -212 4z"/>
</g>
</svg>
